<svg xmlns="http://www.w3.org/2000/svg" viewBox="0 0 1366 641" preserveAspectRatio="xMidYMid" width="1366" height="641" style="shape-rendering: auto; display: block; background: rgb(26, 27, 32);"><g data-idx="1"><path d="M 0 390.862 C 228 390.862 455 417.138 683 417.138 C 911 417.138 1138 390.862 1366 390.862 C 1594 390.862 1821 417.138 2049 417.138 C 2277 417.138 2504 390.862 2732 390.862" fill="none" stroke="rgb(44, 157, 221)" stroke-opacity="0" stroke-width="2" data-idx="2" transform="matrix(1,0,0,1,-293.69000244140625,0)">
  
  
  
</path><path d="M 0 392.793 C 228 392.793 455 415.207 683 415.207 C 911 415.207 1138 392.793 1366 392.793 C 1594 392.793 1821 415.207 2049 415.207 C 2277 415.207 2504 392.793 2732 392.793" fill="none" stroke="rgb(43, 157, 221)" stroke-opacity="0" stroke-width="2" data-idx="6" transform="matrix(1,0,0,1,-300.9752197265625,0)">
  
  
  
</path><path d="M 0 394.759 C 228 394.759 455 413.241 683 413.241 C 911 413.241 1138 394.759 1366 394.759 C 1594 394.759 1821 413.241 2049 413.241 C 2277 413.241 2504 394.759 2732 394.759" fill="none" stroke="rgb(43, 158, 222)" stroke-opacity="0" stroke-width="2" data-idx="10" transform="matrix(1,0,0,1,-308.26043701171875,0)">
  
  
  
</path><path d="M 0 396.753 C 228 396.753 455 411.247 683 411.247 C 911 411.247 1138 396.753 1366 396.753 C 1594 396.753 1821 411.247 2049 411.247 C 2277 411.247 2504 396.753 2732 396.753" fill="none" stroke="rgb(42, 158, 222)" stroke-opacity="0" stroke-width="2" data-idx="14" transform="matrix(1,0,0,1,-315.5460205078125,0)">
  
  
  
</path><path d="M 0 398.77 C 228 398.77 455 409.23 683 409.23 C 911 409.23 1138 398.77 1366 398.77 C 1594 398.77 1821 409.23 2049 409.23 C 2277 409.23 2504 398.77 2732 398.77" fill="none" stroke="rgb(42, 159, 222)" stroke-opacity="0" stroke-width="2" data-idx="18" transform="matrix(1,0,0,1,-322.8312072753906,0)">
  
  
  
</path><path d="M 0 400.804 C 228 400.804 455 407.196 683 407.196 C 911 407.196 1138 400.804 1366 400.804 C 1594 400.804 1821 407.196 2049 407.196 C 2277 407.196 2504 400.804 2732 400.804" fill="none" stroke="rgb(42, 159, 222)" stroke-opacity="0" stroke-width="2" data-idx="22" transform="matrix(1,0,0,1,-330.1164245605469,0)">
  
  
  
</path><path d="M 0 402.848 C 228 402.848 455 405.152 683 405.152 C 911 405.152 1138 402.848 1366 402.848 C 1594 402.848 1821 405.152 2049 405.152 C 2277 405.152 2504 402.848 2732 402.848" fill="none" stroke="rgb(42, 159, 222)" stroke-opacity="0" stroke-width="2" data-idx="26" transform="matrix(1,0,0,1,-337.4019775390625,0)">
  
  
  
</path><path d="M 0 404.896 C 228 404.896 455 403.104 683 403.104 C 911 403.104 1138 404.896 1366 404.896 C 1594 404.896 1821 403.104 2049 403.104 C 2277 403.104 2504 404.896 2732 404.896" fill="none" stroke="rgb(42, 159, 222)" stroke-opacity="0" stroke-width="2" data-idx="30" transform="matrix(1,0,0,1,-344.6872253417969,0)">
  
  
  
</path><path d="M 0 406.941 C 228 406.941 455 401.059 683 401.059 C 911 401.059 1138 406.941 1366 406.941 C 1594 406.941 1821 401.059 2049 401.059 C 2277 401.059 2504 406.941 2732 406.941" fill="none" stroke="rgb(42, 159, 222)" stroke-opacity="0" stroke-width="2" data-idx="34" transform="matrix(1,0,0,1,-351.9724426269531,0)">
  
  
  
</path><path d="M 0 408.976 C 228 408.976 455 399.024 683 399.024 C 911 399.024 1138 408.976 1366 408.976 C 1594 408.976 1821 399.024 2049 399.024 C 2277 399.024 2504 408.976 2732 408.976" fill="none" stroke="rgb(42, 159, 222)" stroke-opacity="0" stroke-width="2" data-idx="38" transform="matrix(1,0,0,1,-359.2580261230469,0)">
  
  
  
</path><path d="M 0 410.996 C 228 410.996 455 397.004 683 397.004 C 911 397.004 1138 410.996 1366 410.996 C 1594 410.996 1821 397.004 2049 397.004 C 2277 397.004 2504 410.996 2732 410.996" fill="none" stroke="rgb(42, 160, 221)" stroke-opacity="0" stroke-width="2" data-idx="42" transform="matrix(1,0,0,1,-366.543212890625,0)">
  
  
  
</path><path d="M 0 412.993 C 228 412.993 455 395.007 683 395.007 C 911 395.007 1138 412.993 1366 412.993 C 1594 412.993 1821 395.007 2049 395.007 C 2277 395.007 2504 412.993 2732 412.993" fill="none" stroke="rgb(42, 160, 221)" stroke-opacity="0" stroke-width="2" data-idx="46" transform="matrix(1,0,0,1,-373.82843017578125,0)">
  
  
  
</path><path d="M 0 414.963 C 228 414.963 455 393.037 683 393.037 C 911 393.037 1138 414.963 1366 414.963 C 1594 414.963 1821 393.037 2049 393.037 C 2277 393.037 2504 414.963 2732 414.963" fill="none" stroke="rgb(42, 160, 221)" stroke-opacity="0" stroke-width="2" data-idx="50" transform="matrix(1,0,0,1,-381.114013671875,0)">
  
  
  
</path><path d="M 0 416.899 C 228 416.899 455 391.101 683 391.101 C 911 391.101 1138 416.899 1366 416.899 C 1594 416.899 1821 391.101 2049 391.101 C 2277 391.101 2504 416.899 2732 416.899" fill="none" stroke="rgb(42, 161, 220)" stroke-opacity="0" stroke-width="2" data-idx="54" transform="matrix(1,0,0,1,-388.39923095703125,0)">
  
  
  
</path><path d="M 0 418.797 C 228 418.797 455 389.203 683 389.203 C 911 389.203 1138 418.797 1366 418.797 C 1594 418.797 1821 389.203 2049 389.203 C 2277 389.203 2504 418.797 2732 418.797" fill="none" stroke="rgb(42, 162, 219)" stroke-opacity="0" stroke-width="2" data-idx="58" transform="matrix(1,0,0,1,-395.6844482421875,0)">
  
  
  
</path><path d="M 0 420.652 C 228 420.652 455 387.348 683 387.348 C 911 387.348 1138 420.652 1366 420.652 C 1594 420.652 1821 387.348 2049 387.348 C 2277 387.348 2504 420.652 2732 420.652" fill="none" stroke="rgb(42, 163, 218)" stroke-opacity="0" stroke-width="2" data-idx="62" transform="matrix(1,0,0,1,-402.969970703125,0)">
  
  
  
</path><path d="M 0 422.461 C 228 422.461 455 385.539 683 385.539 C 911 385.539 1138 422.461 1366 422.461 C 1594 422.461 1821 385.539 2049 385.539 C 2277 385.539 2504 422.461 2732 422.461" fill="none" stroke="rgb(41, 164, 217)" stroke-opacity="0" stroke-width="2" data-idx="66" transform="matrix(1,0,0,1,-410.2552490234375,0)">
  
  
  
</path><path d="M 0 424.219 C 228 424.219 455 383.781 683 383.781 C 911 383.781 1138 424.219 1366 424.219 C 1594 424.219 1821 383.781 2049 383.781 C 2277 383.781 2504 424.219 2732 424.219" fill="none" stroke="rgb(41, 165, 216)" stroke-opacity="0" stroke-width="2" data-idx="70" transform="matrix(1,0,0,1,-417.5404357910156,0)">
  
  
  
</path><path d="M 0 425.925 C 228 425.925 455 382.075 683 382.075 C 911 382.075 1138 425.925 1366 425.925 C 1594 425.925 1821 382.075 2049 382.075 C 2277 382.075 2504 425.925 2732 425.925" fill="none" stroke="rgb(41, 166, 215)" stroke-opacity="0" stroke-width="2" data-idx="74" transform="matrix(1,0,0,1,-424.82598876953125,0)">
  
  
  
</path><path d="M 0 427.575 C 228 427.575 455 380.425 683 380.425 C 911 380.425 1138 427.575 1366 427.575 C 1594 427.575 1821 380.425 2049 380.425 C 2277 380.425 2504 427.575 2732 427.575" fill="none" stroke="rgb(41, 167, 214)" stroke-opacity="0" stroke-width="2" data-idx="78" transform="matrix(1,0,0,1,-432.1112365722656,0)">
  
  
  
</path><path d="M 0 429.169 C 228 429.169 455 378.831 683 378.831 C 911 378.831 1138 429.169 1366 429.169 C 1594 429.169 1821 378.831 2049 378.831 C 2277 378.831 2504 429.169 2732 429.169" fill="none" stroke="rgb(41, 169, 212)" stroke-opacity="0" stroke-width="2" data-idx="82" transform="matrix(1,0,0,1,-439.3964538574219,0)">
  
  
  
</path><path d="M 0 430.704 C 228 430.704 455 377.296 683 377.296 C 911 377.296 1138 430.704 1366 430.704 C 1594 430.704 1821 377.296 2049 377.296 C 2277 377.296 2504 430.704 2732 430.704" fill="none" stroke="rgb(40, 171, 210)" stroke-opacity="0" stroke-width="2" data-idx="86" transform="matrix(1,0,0,1,-446.6819763183594,0)">
  
  
  
</path><path d="M 0 432.179 C 228 432.179 455 375.821 683 375.821 C 911 375.821 1138 432.179 1366 432.179 C 1594 432.179 1821 375.821 2049 375.821 C 2277 375.821 2504 432.179 2732 432.179" fill="none" stroke="rgb(40, 173, 208)" stroke-opacity="0" stroke-width="2" data-idx="90" transform="matrix(1,0,0,1,-453.9671936035156,0)">
  
  
  
</path><path d="M 0 433.595 C 228 433.595 455 374.405 683 374.405 C 911 374.405 1138 433.595 1366 433.595 C 1594 433.595 1821 374.405 2049 374.405 C 2277 374.405 2504 433.595 2732 433.595" fill="none" stroke="rgb(40, 175, 206)" stroke-opacity="0" stroke-width="2" data-idx="94" transform="matrix(1,0,0,1,-461.25244140625,0)">
  
  
  
</path><path d="M 0 434.95 C 228 434.95 455 373.05 683 373.05 C 911 373.05 1138 434.95 1366 434.95 C 1594 434.95 1821 373.05 2049 373.05 C 2277 373.05 2504 434.95 2732 434.95" fill="none" stroke="rgb(40, 177, 204)" stroke-opacity="0" stroke-width="2" data-idx="98" transform="matrix(1,0,0,1,-468.5379943847656,0)">
  
  
  
</path><path d="M 0 436.245 C 228 436.245 455 371.755 683 371.755 C 911 371.755 1138 436.245 1366 436.245 C 1594 436.245 1821 371.755 2049 371.755 C 2277 371.755 2504 436.245 2732 436.245" fill="none" stroke="rgb(39, 180, 201)" stroke-opacity="0" stroke-width="2" data-idx="102" transform="matrix(1,0,0,1,-475.8232116699219,0)">
  
  
  
</path><path d="M 0 437.48 C 228 437.48 455 370.52 683 370.52 C 911 370.52 1138 437.48 1366 437.48 C 1594 437.48 1821 370.52 2049 370.52 C 2277 370.52 2504 437.48 2732 437.48" fill="none" stroke="rgb(39, 182, 199)" stroke-opacity="0" stroke-width="2" data-idx="106" transform="matrix(1,0,0,1,-483.10845947265625,0)">
  
  
  
</path><path d="M 0 438.656 C 228 438.656 455 369.344 683 369.344 C 911 369.344 1138 438.656 1366 438.656 C 1594 438.656 1821 369.344 2049 369.344 C 2277 369.344 2504 438.656 2732 438.656" fill="none" stroke="rgb(39, 185, 196)" stroke-opacity="0" stroke-width="2" data-idx="110" transform="matrix(1,0,0,1,-490.39398193359375,0)">
  
  
  
</path><path d="M 0 439.773 C 228 439.773 455 368.227 683 368.227 C 911 368.227 1138 439.773 1366 439.773 C 1594 439.773 1821 368.227 2049 368.227 C 2277 368.227 2504 439.773 2732 439.773" fill="none" stroke="rgb(38, 188, 193)" stroke-opacity="0" stroke-width="2" data-idx="114" transform="matrix(1,0,0,1,-497.67919921875,0)">
  
  
  
</path><path d="M 0 440.832 C 228 440.832 455 367.168 683 367.168 C 911 367.168 1138 440.832 1366 440.832 C 1594 440.832 1821 367.168 2049 367.168 C 2277 367.168 2504 440.832 2732 440.832" fill="none" stroke="rgb(38, 191, 190)" stroke-opacity="0" stroke-width="2" data-idx="118" transform="matrix(1,0,0,1,-504.96441650390625,0)">
  
  
  
</path><path d="M 0 441.834 C 228 441.834 455 366.166 683 366.166 C 911 366.166 1138 441.834 1366 441.834 C 1594 441.834 1821 366.166 2049 366.166 C 2277 366.166 2504 441.834 2732 441.834" fill="none" stroke="rgb(38, 194, 188)" stroke-opacity="0" stroke-width="2" data-idx="122" transform="matrix(1,0,0,1,-512.25,0)">
  
  
  
</path><path d="M 0 442.781 C 228 442.781 455 365.219 683 365.219 C 911 365.219 1138 442.781 1366 442.781 C 1594 442.781 1821 365.219 2049 365.219 C 2277 365.219 2504 442.781 2732 442.781" fill="none" stroke="rgb(37, 196, 185)" stroke-opacity="0" stroke-width="2" data-idx="126" transform="matrix(1,0,0,1,-519.5352172851562,0)">
  
  
  
</path><path d="M 0 443.673 C 228 443.673 455 364.327 683 364.327 C 911 364.327 1138 443.673 1366 443.673 C 1594 443.673 1821 364.327 2049 364.327 C 2277 364.327 2504 443.673 2732 443.673" fill="none" stroke="rgb(37, 199, 182)" stroke-opacity="0" stroke-width="2" data-idx="130" transform="matrix(1,0,0,1,-526.8204345703125,0)">
  
  
  
</path><path d="M 0 444.511 C 228 444.511 455 363.489 683 363.489 C 911 363.489 1138 444.511 1366 444.511 C 1594 444.511 1821 363.489 2049 363.489 C 2277 363.489 2504 444.511 2732 444.511" fill="none" stroke="rgb(36, 202, 179)" stroke-opacity="0" stroke-width="2" data-idx="134" transform="matrix(1,0,0,1,-534.1060180664062,0)">
  
  
  
</path><path d="M 0 445.297 C 228 445.297 455 362.703 683 362.703 C 911 362.703 1138 445.297 1366 445.297 C 1594 445.297 1821 362.703 2049 362.703 C 2277 362.703 2504 445.297 2732 445.297" fill="none" stroke="rgb(36, 205, 176)" stroke-opacity="0" stroke-width="2" data-idx="138" transform="matrix(1,0,0,1,-541.3912353515625,0)">
  
  
  
</path><path d="M 0 446.033 C 228 446.033 455 361.967 683 361.967 C 911 361.967 1138 446.033 1366 446.033 C 1594 446.033 1821 361.967 2049 361.967 C 2277 361.967 2504 446.033 2732 446.033" fill="none" stroke="rgb(36, 207, 174)" stroke-opacity="0" stroke-width="2" data-idx="142" transform="matrix(1,0,0,1,-548.6764526367188,0)">
  
  
  
</path><path d="M 0 446.719 C 228 446.719 455 361.281 683 361.281 C 911 361.281 1138 446.719 1366 446.719 C 1594 446.719 1821 361.281 2049 361.281 C 2277 361.281 2504 446.719 2732 446.719" fill="none" stroke="rgb(35, 210, 171)" stroke-opacity="0" stroke-width="2" data-idx="146" transform="matrix(1,0,0,1,-555.9620361328125,0)">
  
  
  
</path><path d="M 0 447.356 C 228 447.356 455 360.644 683 360.644 C 911 360.644 1138 447.356 1366 447.356 C 1594 447.356 1821 360.644 2049 360.644 C 2277 360.644 2504 447.356 2732 447.356" fill="none" stroke="rgb(35, 212, 169)" stroke-opacity="0" stroke-width="2" data-idx="150" transform="matrix(1,0,0,1,-563.2471923828125,0)">
  
  
  
</path><path d="M 0 447.947 C 228 447.947 455 360.053 683 360.053 C 911 360.053 1138 447.947 1366 447.947 C 1594 447.947 1821 360.053 2049 360.053 C 2277 360.053 2504 447.947 2732 447.947" fill="none" stroke="rgb(35, 214, 167)" stroke-opacity="0" stroke-width="2" data-idx="154" transform="matrix(1,0,0,1,-570.5324096679688,0)">
  
  
  
</path><path d="M 0 448.492 C 228 448.492 455 359.508 683 359.508 C 911 359.508 1138 448.492 1366 448.492 C 1594 448.492 1821 359.508 2049 359.508 C 2277 359.508 2504 448.492 2732 448.492" fill="none" stroke="rgb(35, 216, 165)" stroke-opacity="0" stroke-width="2" data-idx="158" transform="matrix(1,0,0,1,-577.8179931640625,0)">
  
  
  
</path><path d="M 0 448.993 C 228 448.993 455 359.007 683 359.007 C 911 359.007 1138 448.993 1366 448.993 C 1594 448.993 1821 359.007 2049 359.007 C 2277 359.007 2504 448.993 2732 448.993" fill="none" stroke="rgb(34, 218, 163)" stroke-opacity="0" stroke-width="2" data-idx="162" transform="matrix(1,0,0,1,-585.1032104492188,0)">
  
  
  
</path><path d="M 0 449.45 C 228 449.45 455 358.55 683 358.55 C 911 358.55 1138 449.45 1366 449.45 C 1594 449.45 1821 358.55 2049 358.55 C 2277 358.55 2504 449.45 2732 449.45" fill="none" stroke="rgb(34, 220, 161)" stroke-opacity="0" stroke-width="2" data-idx="166" transform="matrix(1,0,0,1,-592.388427734375,0)">
  
  
  
</path><path d="M 0 449.866 C 228 449.866 455 358.134 683 358.134 C 911 358.134 1138 449.866 1366 449.866 C 1594 449.866 1821 358.134 2049 358.134 C 2277 358.134 2504 449.866 2732 449.866" fill="none" stroke="rgb(34, 221, 160)" stroke-opacity="0" stroke-width="2" data-idx="170" transform="matrix(1,0,0,1,-599.6740112304688,0)">
  
  
  
</path><path d="M 0 450.241 C 228 450.241 455 357.759 683 357.759 C 911 357.759 1138 450.241 1366 450.241 C 1594 450.241 1821 357.759 2049 357.759 C 2277 357.759 2504 450.241 2732 450.241" fill="none" stroke="rgb(34, 222, 159)" stroke-opacity="0" stroke-width="2" data-idx="174" transform="matrix(1,0,0,1,-606.959228515625,0)">
  
  
  
</path><path d="M 0 450.577 C 228 450.577 455 357.423 683 357.423 C 911 357.423 1138 450.577 1366 450.577 C 1594 450.577 1821 357.423 2049 357.423 C 2277 357.423 2504 450.577 2732 450.577" fill="none" stroke="rgb(34, 223, 158)" stroke-opacity="0" stroke-width="2" data-idx="178" transform="matrix(1,0,0,1,-614.2444458007812,0)">
  
  
  
</path><path d="M 0 450.874 C 228 450.874 455 357.126 683 357.126 C 911 357.126 1138 450.874 1366 450.874 C 1594 450.874 1821 357.126 2049 357.126 C 2277 357.126 2504 450.874 2732 450.874" fill="none" stroke="rgb(33, 224, 157)" stroke-opacity="0" stroke-width="2" data-idx="182" transform="matrix(1,0,0,1,-621.530029296875,0)">
  
  
  
</path><path d="M 0 451.134 C 228 451.134 455 356.866 683 356.866 C 911 356.866 1138 451.134 1366 451.134 C 1594 451.134 1821 356.866 2049 356.866 C 2277 356.866 2504 451.134 2732 451.134" fill="none" stroke="rgb(33, 225, 156)" stroke-opacity="0.022727272727272728" stroke-width="2" data-idx="186" transform="matrix(1,0,0,1,-628.8152465820312,0)">
  
  
  
</path><path d="M 0 451.357 C 228 451.357 455 356.643 683 356.643 C 911 356.643 1138 451.357 1366 451.357 C 1594 451.357 1821 356.643 2049 356.643 C 2277 356.643 2504 451.357 2732 451.357" fill="none" stroke="rgb(33, 226, 155)" stroke-opacity="0.045454545454545456" stroke-width="2" data-idx="190" transform="matrix(1,0,0,1,-636.1004638671875,0)">
  
  
  
</path><path d="M 0 451.546 C 228 451.546 455 356.454 683 356.454 C 911 356.454 1138 451.546 1366 451.546 C 1594 451.546 1821 356.454 2049 356.454 C 2277 356.454 2504 451.546 2732 451.546" fill="none" stroke="rgb(33, 227, 154)" stroke-opacity="0.06818181818181818" stroke-width="2" data-idx="194" transform="matrix(1,0,0,1,-643.385986328125,0)">
  
  
  
</path><path d="M 0 451.701 C 228 451.701 455 356.299 683 356.299 C 911 356.299 1138 451.701 1366 451.701 C 1594 451.701 1821 356.299 2049 356.299 C 2277 356.299 2504 451.701 2732 451.701" fill="none" stroke="rgb(33, 227, 154)" stroke-opacity="0.09090909090909091" stroke-width="2" data-idx="198" transform="matrix(1,0,0,1,-650.6712036132812,0)">
  
  
  
</path><path d="M 0 451.822 C 228 451.822 455 356.178 683 356.178 C 911 356.178 1138 451.822 1366 451.822 C 1594 451.822 1821 356.178 2049 356.178 C 2277 356.178 2504 451.822 2732 451.822" fill="none" stroke="rgb(33, 227, 154)" stroke-opacity="0.11363636363636363" stroke-width="2" data-idx="202" transform="matrix(1,0,0,1,-657.9564208984375,0)">
  
  
  
</path><path d="M 0 451.911 C 228 451.911 455 356.089 683 356.089 C 911 356.089 1138 451.911 1366 451.911 C 1594 451.911 1821 356.089 2049 356.089 C 2277 356.089 2504 451.911 2732 451.911" fill="none" stroke="rgb(33, 228, 153)" stroke-opacity="0.13636363636363635" stroke-width="2" data-idx="206" transform="matrix(1,0,0,1,-665.2420043945312,0)">
  
  
  
</path><path d="M 0 451.969 C 228 451.969 455 356.031 683 356.031 C 911 356.031 1138 451.969 1366 451.969 C 1594 451.969 1821 356.031 2049 356.031 C 2277 356.031 2504 451.969 2732 451.969" fill="none" stroke="rgb(33, 228, 153)" stroke-opacity="0.1590909090909091" stroke-width="2" data-idx="210" transform="matrix(1,0,0,1,-672.5272216796875,0)">
  
  
  
</path><path d="M 0 451.997 C 228 451.997 455 356.003 683 356.003 C 911 356.003 1138 451.997 1366 451.997 C 1594 451.997 1821 356.003 2049 356.003 C 2277 356.003 2504 451.997 2732 451.997" fill="none" stroke="rgb(33, 228, 153)" stroke-opacity="0.18181818181818182" stroke-width="2" data-idx="214" transform="matrix(1,0,0,1,-679.8124389648438,0)">
  
  
  
</path><path d="M 0 451.995 C 228 451.995 455 356.005 683 356.005 C 911 356.005 1138 451.995 1366 451.995 C 1594 451.995 1821 356.005 2049 356.005 C 2277 356.005 2504 451.995 2732 451.995" fill="none" stroke="rgb(33, 228, 153)" stroke-opacity="0.20454545454545456" stroke-width="2" data-idx="218" transform="matrix(1,0,0,1,-687.0980224609375,0)">
  
  
  
</path><path d="M 0 451.964 C 228 451.964 455 356.036 683 356.036 C 911 356.036 1138 451.964 1366 451.964 C 1594 451.964 1821 356.036 2049 356.036 C 2277 356.036 2504 451.964 2732 451.964" fill="none" stroke="rgb(33, 228, 153)" stroke-opacity="0.22727272727272727" stroke-width="2" data-idx="222" transform="matrix(1,0,0,1,-694.3832397460938,0)">
  
  
  
</path><path d="M 0 451.902 C 228 451.902 455 356.098 683 356.098 C 911 356.098 1138 451.902 1366 451.902 C 1594 451.902 1821 356.098 2049 356.098 C 2277 356.098 2504 451.902 2732 451.902" fill="none" stroke="rgb(33, 228, 153)" stroke-opacity="0.25" stroke-width="2" data-idx="226" transform="matrix(1,0,0,1,-701.66845703125,0)">
  
  
  
</path><path d="M 0 451.809 C 228 451.809 455 356.191 683 356.191 C 911 356.191 1138 451.809 1366 451.809 C 1594 451.809 1821 356.191 2049 356.191 C 2277 356.191 2504 451.809 2732 451.809" fill="none" stroke="rgb(34, 228, 152)" stroke-opacity="0.2727272727272727" stroke-width="2" data-idx="230" transform="matrix(1,0,0,1,-708.9539794921875,0)">
  
  
  
</path><path d="M 0 451.683 C 228 451.683 455 356.317 683 356.317 C 911 356.317 1138 451.683 1366 451.683 C 1594 451.683 1821 356.317 2049 356.317 C 2277 356.317 2504 451.683 2732 451.683" fill="none" stroke="rgb(34, 228, 152)" stroke-opacity="0.29545454545454547" stroke-width="2" data-idx="234" transform="matrix(1,0,0,1,-716.2391967773438,0)">
  
  
  
</path><path d="M 0 451.524 C 228 451.524 455 356.476 683 356.476 C 911 356.476 1138 451.524 1366 451.524 C 1594 451.524 1821 356.476 2049 356.476 C 2277 356.476 2504 451.524 2732 451.524" fill="none" stroke="rgb(35, 228, 152)" stroke-opacity="0.3181818181818182" stroke-width="2" data-idx="238" transform="matrix(1,0,0,1,-723.5244140625,0)">
  
  
  
</path><path d="M 0 451.331 C 228 451.331 455 356.669 683 356.669 C 911 356.669 1138 451.331 1366 451.331 C 1594 451.331 1821 356.669 2049 356.669 C 2277 356.669 2504 451.331 2732 451.331" fill="none" stroke="rgb(36, 229, 151)" stroke-opacity="0.3409090909090909" stroke-width="2" data-idx="242" transform="matrix(1,0,0,1,-730.81005859375,0)">
  
  
  
</path><path d="M 0 451.103 C 228 451.103 455 356.897 683 356.897 C 911 356.897 1138 451.103 1366 451.103 C 1594 451.103 1821 356.897 2049 356.897 C 2277 356.897 2504 451.103 2732 451.103" fill="none" stroke="rgb(37, 229, 150)" stroke-opacity="0.36363636363636365" stroke-width="2" data-idx="246" transform="matrix(1,0,0,1,-738.0952758789062,0)">
  
  
  
</path><path d="M 0 450.839 C 228 450.839 455 357.161 683 357.161 C 911 357.161 1138 450.839 1366 450.839 C 1594 450.839 1821 357.161 2049 357.161 C 2277 357.161 2504 450.839 2732 450.839" fill="none" stroke="rgb(38, 229, 150)" stroke-opacity="0.38636363636363635" stroke-width="2" data-idx="250" transform="matrix(1,0,0,1,-745.3804321289062,0)">
  
  
  
</path><path d="M 0 450.537 C 228 450.537 455 357.463 683 357.463 C 911 357.463 1138 450.537 1366 450.537 C 1594 450.537 1821 357.463 2049 357.463 C 2277 357.463 2504 450.537 2732 450.537" fill="none" stroke="rgb(39, 229, 149)" stroke-opacity="0.4090909090909091" stroke-width="2" data-idx="254" transform="matrix(1,0,0,1,-752.666015625,0)">
  
  
  
</path><path d="M 0 450.196 C 228 450.196 455 357.804 683 357.804 C 911 357.804 1138 450.196 1366 450.196 C 1594 450.196 1821 357.804 2049 357.804 C 2277 357.804 2504 450.196 2732 450.196" fill="none" stroke="rgb(41, 230, 148)" stroke-opacity="0.4318181818181818" stroke-width="2" data-idx="258" transform="matrix(1,0,0,1,-759.9512329101562,0)">
  
  
  
</path><path d="M 0 449.816 C 228 449.816 455 358.184 683 358.184 C 911 358.184 1138 449.816 1366 449.816 C 1594 449.816 1821 358.184 2049 358.184 C 2277 358.184 2504 449.816 2732 449.816" fill="none" stroke="rgb(43, 230, 146)" stroke-opacity="0.45454545454545453" stroke-width="2" data-idx="262" transform="matrix(1,0,0,1,-767.2364501953125,0)">
  
  
  
</path><path d="M 0 449.396 C 228 449.396 455 358.604 683 358.604 C 911 358.604 1138 449.396 1366 449.396 C 1594 449.396 1821 358.604 2049 358.604 C 2277 358.604 2504 449.396 2732 449.396" fill="none" stroke="rgb(45, 230, 145)" stroke-opacity="0.4772727272727273" stroke-width="2" data-idx="266" transform="matrix(1,0,0,1,-774.52197265625,0)">
  
  
  
</path><path d="M 0 448.933 C 228 448.933 455 359.067 683 359.067 C 911 359.067 1138 448.933 1366 448.933 C 1594 448.933 1821 359.067 2049 359.067 C 2277 359.067 2504 448.933 2732 448.933" fill="none" stroke="rgb(47, 231, 143)" stroke-opacity="0.5" stroke-width="2" data-idx="270" transform="matrix(1,0,0,1,-781.8072509765625,0)">
  
  
  
</path><path d="M 0 448.427 C 228 448.427 455 359.573 683 359.573 C 911 359.573 1138 448.427 1366 448.427 C 1594 448.427 1821 359.573 2049 359.573 C 2277 359.573 2504 448.427 2732 448.427" fill="none" stroke="rgb(49, 231, 142)" stroke-opacity="0.5227272727272727" stroke-width="2" data-idx="274" transform="matrix(1,0,0,1,-789.0924682617188,0)">
  
  
  
</path><path d="M 0 447.876 C 228 447.876 455 360.124 683 360.124 C 911 360.124 1138 447.876 1366 447.876 C 1594 447.876 1821 360.124 2049 360.124 C 2277 360.124 2504 447.876 2732 447.876" fill="none" stroke="rgb(52, 232, 140)" stroke-opacity="0.5454545454545454" stroke-width="2" data-idx="278" transform="matrix(1,0,0,1,-796.3779907226562,0)">
  
  
  
</path><path d="M 0 447.279 C 228 447.279 455 360.721 683 360.721 C 911 360.721 1138 447.279 1366 447.279 C 1594 447.279 1821 360.721 2049 360.721 C 2277 360.721 2504 447.279 2732 447.279" fill="none" stroke="rgb(55, 232, 138)" stroke-opacity="0.5681818181818182" stroke-width="2" data-idx="282" transform="matrix(1,0,0,1,-803.6632080078125,0)">
  
  
  
</path><path d="M 0 446.636 C 228 446.636 455 361.364 683 361.364 C 911 361.364 1138 446.636 1366 446.636 C 1594 446.636 1821 361.364 2049 361.364 C 2277 361.364 2504 446.636 2732 446.636" fill="none" stroke="rgb(58, 233, 136)" stroke-opacity="0.5909090909090909" stroke-width="2" data-idx="286" transform="matrix(1,0,0,1,-810.9484252929688,0)">
  
  
  
</path><path d="M 0 445.944 C 228 445.944 455 362.056 683 362.056 C 911 362.056 1138 445.944 1366 445.944 C 1594 445.944 1821 362.056 2049 362.056 C 2277 362.056 2504 445.944 2732 445.944" fill="none" stroke="rgb(61, 233, 133)" stroke-opacity="0.6136363636363636" stroke-width="2" data-idx="290" transform="matrix(1,0,0,1,-818.2339477539062,0)">
  
  
  
</path><path d="M 0 445.202 C 228 445.202 455 362.798 683 362.798 C 911 362.798 1138 445.202 1366 445.202 C 1594 445.202 1821 362.798 2049 362.798 C 2277 362.798 2504 445.202 2732 445.202" fill="none" stroke="rgb(65, 234, 131)" stroke-opacity="0.6363636363636364" stroke-width="2" data-idx="294" transform="matrix(1,0,0,1,-825.5191650390625,0)">
  
  
  
</path><path d="M 0 444.409 C 228 444.409 455 363.591 683 363.591 C 911 363.591 1138 444.409 1366 444.409 C 1594 444.409 1821 363.591 2049 363.591 C 2277 363.591 2504 444.409 2732 444.409" fill="none" stroke="rgb(69, 235, 128)" stroke-opacity="0.6590909090909091" stroke-width="2" data-idx="298" transform="matrix(1,0,0,1,-832.8045043945312,0)">
  
  
  
</path><g data-idx="302"></g></g><text data-watermark="true" text-anchor="middle" dominant-baseline="middle" stroke-opacity="0.1" fill="black" fill-opacity="0.1" stroke="white" stroke-width="1" font-size="15.0" x="683.0" y="320.5" data-idx="303" style="opacity: 1; font-size: 15px;">LOADING.IO</text></svg>


